<?xml version="1.0" standalone="no"?>
<!DOCTYPE svg PUBLIC "-//W3C//DTD SVG 20010904//EN"
 "http://www.w3.org/TR/2001/REC-SVG-20010904/DTD/svg10.dtd">
<svg version="1.0" xmlns="http://www.w3.org/2000/svg"
 width="191.000000pt" height="34.000000pt" viewBox="0 0 191.000000 34.000000"
 preserveAspectRatio="xMidYMid meet">

<g transform="translate(0.000000,34.000000) scale(0.100000,-0.100000)"
fill="#000000" stroke="none">
<path d="M8 298 c16 -16 16 -220 0 -236 -9 -9 11 -12 91 -12 89 0 102 2 97 16
-4 10 -2 13 7 9 6 -4 4 0 -5 8 -10 8 -15 17 -11 20 3 4 1 7 -5 7 -7 0 -21 -9
-32 -20 -11 -11 -31 -20 -45 -20 l-25 0 0 104 c0 60 4 107 10 111 21 13 -3 25
-48 25 -36 0 -43 -3 -34 -12z m74 -10 c-8 -8 -13 -51 -14 -117 l-2 -106 -3
104 c-3 95 4 131 25 131 3 0 1 -5 -6 -12z"/>
<path d="M260 298 c-49 -25 -75 -118 -51 -181 10 -26 61 -86 61 -71 0 4 5 3
12 -4 19 -19 73 -14 103 10 52 41 69 124 40 193 -8 20 -20 34 -27 33 -7 -2
-12 2 -11 8 1 6 -3 11 -10 12 -69 11 -95 11 -117 0z m48 -19 c-16 -6 -31 -22
-37 -41 -13 -36 -14 -117 -3 -135 4 -7 6 15 5 50 -4 73 10 107 49 118 25 6 28
4 39 -28 16 -48 7 -138 -16 -163 -23 -26 -57 -26 -81 1 -15 17 -19 36 -19 94
0 83 18 116 64 114 l26 -1 -27 -9z m119 -122 c-2 -27 -9 -53 -16 -60 -9 -9 -9
-4 0 21 11 32 9 93 -5 137 -3 11 1 4 10 -15 11 -23 15 -51 11 -83z"/>
<path d="M458 298 c16 -16 16 -220 0 -236 -9 -9 11 -12 91 -12 89 0 102 2 97
16 -4 10 -2 13 7 9 6 -4 4 0 -5 8 -10 8 -15 17 -11 20 3 4 1 7 -5 7 -7 0 -21
-9 -32 -20 -11 -11 -31 -20 -45 -20 l-25 0 0 104 c0 60 4 107 10 111 21 13 -3
25 -48 25 -36 0 -43 -3 -34 -12z m74 -10 c-8 -8 -13 -51 -14 -117 l-2 -106 -3
104 c-3 95 4 131 25 131 3 0 1 -5 -6 -12z"/>
<path d="M700 298 c-49 -25 -75 -118 -51 -181 10 -26 61 -86 61 -71 0 4 5 3
12 -4 19 -19 73 -14 103 10 52 41 69 124 40 193 -8 20 -20 34 -27 33 -7 -2
-12 2 -11 8 1 6 -3 11 -10 12 -69 11 -95 11 -117 0z m48 -19 c-16 -6 -31 -22
-37 -41 -13 -36 -14 -117 -3 -135 4 -7 6 15 5 50 -4 73 10 107 49 118 25 6 28
4 39 -28 16 -48 7 -138 -16 -163 -23 -26 -57 -26 -81 1 -15 17 -19 36 -19 94
0 83 18 116 64 114 l26 -1 -27 -9z m119 -122 c-2 -27 -9 -53 -16 -60 -9 -9 -9
-4 0 21 11 32 9 93 -5 137 -3 11 1 4 10 -15 11 -23 15 -51 11 -83z"/>
<path d="M1001 296 c-22 -8 -31 -15 -23 -20 18 -11 16 -86 -3 -86 -8 0 -15 -4
-15 -10 0 -5 7 -10 15 -10 19 0 21 -90 3 -108 -9 -9 8 -12 78 -14 l89 -2 -90
-6 -90 -6 90 -2 c96 -2 143 14 131 45 -3 8 -1 11 4 8 12 -7 13 44 2 61 -4 6
-20 18 -36 26 -27 14 -27 15 -7 21 14 3 19 1 14 -6 -3 -7 3 -3 15 7 13 11 21
30 21 45 l-2 26 -4 -25 c-3 -14 -9 -29 -15 -35 -7 -7 -8 -3 -3 13 21 72 -73
115 -174 78z m121 -23 c10 -9 18 -24 18 -34 0 -22 -37 -49 -67 -49 -20 0 -23
5 -23 40 0 37 2 40 28 40 15 0 34 -6 42 -12 12 -11 12 -10 1 5 -8 10 -27 17
-47 17 -32 0 -33 -1 -37 -47 l-3 -48 -2 53 -2 52 37 0 c20 0 45 -7 55 -17z
m-8 -109 c9 -3 13 -10 10 -15 -3 -5 0 -9 5 -9 17 0 13 -37 -5 -54 -8 -9 -29
-16 -45 -16 -28 0 -29 2 -31 48 l-1 47 -7 -50 -7 -50 -1 53 -2 52 34 0 c19 0
41 -3 50 -6z"/>
<path d="M1073 153 c9 -2 23 -2 30 0 6 3 -1 5 -18 5 -16 0 -22 -2 -12 -5z"/>
<path d="M1218 298 c16 -16 16 -220 0 -236 -9 -9 11 -12 91 -12 89 0 102 2 97
16 -4 10 -2 13 7 9 6 -4 4 0 -5 8 -10 8 -15 17 -11 20 3 4 1 7 -5 7 -7 0 -21
-9 -32 -20 -11 -11 -31 -20 -45 -20 l-25 0 0 104 c0 60 4 107 10 111 21 13 -3
25 -48 25 -36 0 -43 -3 -34 -12z m74 -10 c-8 -8 -13 -51 -14 -117 l-2 -106 -3
104 c-3 95 4 131 25 131 3 0 1 -5 -6 -12z"/>
<path d="M1470 298 c-49 -25 -75 -118 -51 -181 10 -26 61 -86 61 -71 0 4 5 3
12 -4 19 -19 73 -14 103 10 15 12 34 37 42 57 14 33 16 34 23 15 5 -11 22 -33
40 -47 28 -24 40 -27 108 -27 l77 0 0 75 0 75 -61 0 c-41 0 -64 4 -67 13 -3 9
-8 9 -17 1 -9 -9 -9 -17 -1 -33 9 -16 21 -21 51 -21 l40 0 0 -45 c0 -45 0 -45
-34 -45 -33 0 -66 21 -66 41 0 6 -4 8 -9 5 -11 -7 -3 80 11 117 7 17 21 30 42
36 29 9 30 9 5 10 -37 1 -60 -29 -69 -91 l-8 -53 -1 43 c-1 53 22 100 53 108
32 8 62 1 59 -14 -2 -7 3 -11 9 -9 7 1 14 -8 16 -20 5 -32 19 -28 37 10 14 28
14 30 0 13 -17 -22 -20 -14 -5 14 9 16 4 19 -49 25 -33 4 -70 4 -83 0 -29 -9
-78 -54 -78 -72 0 -7 -4 -13 -9 -13 -5 0 -11 -25 -13 -55 -3 -31 -10 -61 -17
-68 -9 -9 -9 -4 0 21 11 32 9 93 -5 137 -3 11 0 7 8 -10 8 -16 15 -23 15 -15
1 21 -16 45 -31 45 -7 1 -12 6 -11 11 1 6 -3 11 -10 12 -69 11 -95 11 -117 0z
m48 -19 c-16 -6 -31 -22 -37 -41 -13 -36 -14 -117 -3 -135 4 -7 6 15 5 50 -4
73 10 107 49 118 25 6 28 4 39 -28 16 -48 7 -138 -16 -163 -23 -26 -57 -26
-81 1 -15 17 -19 36 -19 94 0 83 18 116 64 114 l26 -1 -27 -9z m295 -106 c-13
-2 -33 -2 -45 0 -13 2 -3 4 22 4 25 0 35 -2 23 -4z"/>
<path d="M210 50 c0 -5 -47 -11 -107 -13 l-108 -3 113 -2 c94 -2 112 0 112 13
0 8 -2 15 -5 15 -3 0 -5 -4 -5 -10z"/>
<path d="M660 50 c0 -5 -47 -11 -107 -13 l-108 -3 113 -2 c94 -2 112 0 112 13
0 8 -2 15 -5 15 -3 0 -5 -4 -5 -10z"/>
<path d="M1420 50 c0 -5 -47 -11 -107 -13 l-108 -3 113 -2 c94 -2 112 0 112
13 0 8 -2 15 -5 15 -3 0 -5 -4 -5 -10z"/>
<path d="M1773 33 c26 -2 68 -2 95 0 26 2 4 3 -48 3 -52 0 -74 -1 -47 -3z"/>
</g>
</svg>
