<?xml version="1.0" standalone="no"?>
<!DOCTYPE svg PUBLIC "-//W3C//DTD SVG 20010904//EN"
 "http://www.w3.org/TR/2001/REC-SVG-20010904/DTD/svg10.dtd">
<svg version="1.0" xmlns="http://www.w3.org/2000/svg"
 width="88.000000pt" height="34.000000pt" viewBox="0 0 88.000000 34.000000"
 preserveAspectRatio="xMidYMid meet">

<g transform="translate(0.000000,34.000000) scale(0.100000,-0.100000)"
fill="#000000" stroke="none">
<path d="M8 298 c16 -16 16 -220 0 -236 -9 -9 11 -12 91 -12 89 0 102 2 97 16
-4 10 -2 13 7 9 6 -4 4 0 -5 8 -10 8 -15 17 -11 20 3 4 1 7 -5 7 -7 0 -21 -9
-32 -20 -11 -11 -31 -20 -45 -20 l-25 0 0 104 c0 60 4 107 10 111 21 13 -3 25
-48 25 -36 0 -43 -3 -34 -12z m74 -10 c-8 -8 -13 -51 -14 -117 l-2 -106 -3
104 c-3 95 4 131 25 131 3 0 1 -5 -6 -12z"/>
<path d="M260 298 c-49 -25 -75 -118 -51 -181 10 -26 61 -86 61 -71 0 4 5 3
12 -4 19 -19 73 -14 103 10 52 41 69 124 40 193 -8 20 -20 34 -27 33 -7 -2
-12 2 -11 8 1 6 -3 11 -10 12 -69 11 -95 11 -117 0z m48 -19 c-16 -6 -31 -22
-37 -41 -13 -36 -14 -117 -3 -135 4 -7 6 15 5 50 -4 73 10 107 49 118 25 6 28
4 39 -28 16 -48 7 -138 -16 -163 -23 -26 -57 -26 -81 1 -15 17 -19 36 -19 94
0 83 18 116 64 114 l26 -1 -27 -9z m119 -122 c-2 -27 -9 -53 -16 -60 -9 -9 -9
-4 0 21 11 32 9 93 -5 137 -3 11 1 4 10 -15 11 -23 15 -51 11 -83z"/>
<path d="M458 298 c16 -16 16 -220 0 -236 -9 -9 11 -12 91 -12 89 0 102 2 97
16 -4 10 -2 13 7 9 6 -4 4 0 -5 8 -10 8 -15 17 -11 20 3 4 1 7 -5 7 -7 0 -21
-9 -32 -20 -11 -11 -31 -20 -45 -20 l-25 0 0 104 c0 60 4 107 10 111 21 13 -3
25 -48 25 -36 0 -43 -3 -34 -12z m74 -10 c-8 -8 -13 -51 -14 -117 l-2 -106 -3
104 c-3 95 4 131 25 131 3 0 1 -5 -6 -12z"/>
<path d="M700 298 c-49 -25 -75 -118 -51 -181 10 -26 61 -86 61 -71 0 4 5 3
12 -4 19 -19 73 -14 103 10 52 41 69 124 40 193 -8 20 -20 34 -27 33 -7 -2
-12 2 -11 8 1 6 -3 11 -10 12 -69 11 -95 11 -117 0z m48 -19 c-16 -6 -31 -22
-37 -41 -13 -36 -14 -117 -3 -135 4 -7 6 15 5 50 -4 73 10 107 49 118 25 6 28
4 39 -28 16 -48 7 -138 -16 -163 -23 -26 -57 -26 -81 1 -15 17 -19 36 -19 94
0 83 18 116 64 114 l26 -1 -27 -9z m119 -122 c-2 -27 -9 -53 -16 -60 -9 -9 -9
-4 0 21 11 32 9 93 -5 137 -3 11 1 4 10 -15 11 -23 15 -51 11 -83z"/>
<path d="M210 50 c0 -5 -47 -11 -107 -13 l-108 -3 113 -2 c94 -2 112 0 112 13
0 8 -2 15 -5 15 -3 0 -5 -4 -5 -10z"/>
<path d="M660 50 c0 -5 -47 -11 -107 -13 l-108 -3 113 -2 c94 -2 112 0 112 13
0 8 -2 15 -5 15 -3 0 -5 -4 -5 -10z"/>
</g>
</svg>
